<?xml version="1.0" encoding="UTF-8"?>
<!DOCTYPE svg PUBLIC "-//W3C//DTD SVG 1.1//EN" "http://www.w3.org/Graphics/SVG/1.1/DTD/svg11.dtd">
<svg xmlns="http://www.w3.org/2000/svg" version="1.1" width="512px" height="512px" style="shape-rendering:geometricPrecision; text-rendering:geometricPrecision; image-rendering:optimizeQuality; fill-rule:evenodd; clip-rule:evenodd" xmlns:xlink="http://www.w3.org/1999/xlink">
<g><path style="opacity:0.998" fill="#4caf50" d="M 82.5,-0.5 C 140.167,-0.5 197.833,-0.5 255.5,-0.5C 255.5,84.8333 255.5,170.167 255.5,255.5C 170.167,255.5 84.8333,255.5 -0.5,255.5C -0.5,197.833 -0.5,140.167 -0.5,82.5C 8.83333,36.5 36.5,8.83333 82.5,-0.5 Z"/></g>
<g><path style="opacity:0.999" fill="#ffc107" d="M 255.5,-0.5 C 313.167,-0.5 370.833,-0.5 428.5,-0.5C 474.5,8.83333 502.167,36.5 511.5,82.5C 511.5,140.167 511.5,197.833 511.5,255.5C 426.167,255.5 340.833,255.5 255.5,255.5C 255.5,170.167 255.5,84.8333 255.5,-0.5 Z"/></g>
<g><path style="opacity:1" fill="#f9f9f9" d="M 202.5,148.5 C 184.5,148.5 166.5,148.5 148.5,148.5C 148.5,166.5 148.5,184.5 148.5,202.5C 148.156,206.684 146.156,209.851 142.5,212C 136.843,213.718 132.343,212.218 129,207.5C 127.549,187.888 127.049,168.221 127.5,148.5C 108.164,148.667 88.8305,148.5 69.5,148C 61.2421,140.831 61.5754,134.164 70.5,128C 89.4971,127.5 108.497,127.333 127.5,127.5C 127.333,108.497 127.5,89.4971 128,70.5C 134.164,61.5754 140.831,61.2421 148,69.5C 148.5,88.8305 148.667,108.164 148.5,127.5C 168.221,127.049 187.888,127.549 207.5,129C 214.38,135.74 214.047,142.073 206.5,148C 205.207,148.49 203.873,148.657 202.5,148.5 Z"/></g>
<g><path style="opacity:1" fill="#faf9f9" d="M 328.5,127.5 C 365.502,127.333 402.502,127.5 439.5,128C 446.344,131.196 448.51,136.362 446,143.5C 444.363,145.81 442.196,147.31 439.5,148C 401.5,148.667 363.5,148.667 325.5,148C 317.111,139.695 318.111,132.862 328.5,127.5 Z"/></g>
<g><path style="opacity:1" fill="#88c98b" d="M 202.5,148.5 C 185.008,149.497 167.341,149.83 149.5,149.5C 149.83,167.341 149.497,185.008 148.5,202.5C 148.5,184.5 148.5,166.5 148.5,148.5C 166.5,148.5 184.5,148.5 202.5,148.5 Z"/></g>
<g><path style="opacity:0.998" fill="#2196f3" d="M -0.5,255.5 C 84.8333,255.5 170.167,255.5 255.5,255.5C 255.5,340.833 255.5,426.167 255.5,511.5C 197.833,511.5 140.167,511.5 82.5,511.5C 36.5,502.167 8.83333,474.5 -0.5,428.5C -0.5,370.833 -0.5,313.167 -0.5,255.5 Z"/></g>
<g><path style="opacity:0.999" fill="#455a64" d="M 255.5,255.5 C 340.833,255.5 426.167,255.5 511.5,255.5C 511.5,313.167 511.5,370.833 511.5,428.5C 502.167,474.5 474.5,502.167 428.5,511.5C 370.833,511.5 313.167,511.5 255.5,511.5C 255.5,426.167 255.5,340.833 255.5,255.5 Z"/></g>
<g><path style="opacity:1" fill="#f7f8f9" d="M 92.5,319.5 C 96.8751,319.347 100.708,320.68 104,323.5C 115.092,338.015 126.426,352.349 138,366.5C 150.142,351.057 162.642,335.89 175.5,321C 181.267,318.3 186.1,319.467 190,324.5C 191.899,328.197 191.899,331.864 190,335.5C 177.103,351.392 164.603,367.559 152.5,384C 164.986,399.822 177.486,415.656 190,431.5C 193.169,440.337 190.169,445.671 181,447.5C 179.033,447.458 177.199,446.958 175.5,446C 162.642,431.11 150.142,415.943 138,400.5C 126.547,415.622 114.713,430.455 102.5,445C 97.5762,448.286 92.7429,448.119 88,444.5C 85.1012,440.063 84.7678,435.397 87,430.5C 99.3099,414.689 111.81,399.022 124.5,383.5C 111.81,367.978 99.3099,352.311 87,336.5C 83.6436,328.937 85.477,323.27 92.5,319.5 Z"/></g>
<g><path style="opacity:1" fill="#f7f7f7" d="M 348.5,319.5 C 352.986,318.994 356.819,320.328 360,323.5C 381.667,359.5 403.333,395.5 425,431.5C 427.551,442.944 423.051,448.11 411.5,447C 409.91,445.954 408.41,444.787 407,443.5C 385.082,407.332 363.415,370.999 342,334.5C 341.333,331.5 341.333,328.5 342,325.5C 344.063,323.266 346.229,321.266 348.5,319.5 Z"/></g>
</svg>
