<?xml version="1.0" encoding="UTF-8"?>
<!DOCTYPE svg PUBLIC "-//W3C//DTD SVG 1.1//EN" "http://www.w3.org/Graphics/SVG/1.1/DTD/svg11.dtd">
<svg xmlns="http://www.w3.org/2000/svg" version="1.1" width="758px" height="666px" style="shape-rendering:geometricPrecision; text-rendering:geometricPrecision; image-rendering:optimizeQuality; fill-rule:evenodd; clip-rule:evenodd" xmlns:xlink="http://www.w3.org/1999/xlink">
<g><path style="opacity:1" fill="#fefefe" d="M -0.5,-0.5 C 252.167,-0.5 504.833,-0.5 757.5,-0.5C 757.5,221.5 757.5,443.5 757.5,665.5C 504.833,665.5 252.167,665.5 -0.5,665.5C -0.5,443.5 -0.5,221.5 -0.5,-0.5 Z"/></g>
<g><path style="opacity:1" fill="#4eb051" d="M 374.5,169.5 C 374.5,223.5 374.5,277.5 374.5,331.5C 320.5,331.5 266.5,331.5 212.5,331.5C 212.333,293.165 212.5,254.832 213,216.5C 220.018,191.483 236.184,175.983 261.5,170C 299.165,169.5 336.832,169.333 374.5,169.5 Z"/></g>
<g><path style="opacity:1" fill="#fec10a" d="M 374.5,169.5 C 412.168,169.333 449.835,169.5 487.5,170C 505.023,173.993 518.523,183.493 528,198.5C 531.789,204.74 534.455,211.407 536,218.5C 536.5,256.165 536.667,293.832 536.5,331.5C 482.5,331.5 428.5,331.5 374.5,331.5C 374.5,277.5 374.5,223.5 374.5,169.5 Z"/></g>
<g><path style="opacity:1" fill="#f3f6f2" d="M 342.5,263.5 C 330.5,263.5 318.5,263.5 306.5,263.5C 306.5,270.5 306.5,277.5 306.5,284.5C 306.666,289.844 306.499,295.177 306,300.5C 302.561,305.126 298.895,305.459 295,301.5C 293.783,295.899 293.283,290.232 293.5,284.5C 293.5,277.5 293.5,270.5 293.5,263.5C 284.167,263.5 274.833,263.5 265.5,263.5C 256.684,265.506 252.85,262.173 254,253.5C 254.833,252.667 255.667,251.833 256.5,251C 268.829,250.5 281.162,250.333 293.5,250.5C 293.333,238.162 293.5,225.829 294,213.5C 297.96,209.522 301.96,209.522 306,213.5C 306.5,225.829 306.667,238.162 306.5,250.5C 319.194,250.309 331.861,250.809 344.5,252C 347.642,256.656 346.976,260.489 342.5,263.5 Z"/></g>
<g><path style="opacity:1" fill="#faf7f5" d="M 418.5,251.5 C 443.169,251.333 467.836,251.5 492.5,252C 496.619,256.073 496.285,259.74 491.5,263C 467.167,263.667 442.833,263.667 418.5,263C 414.581,259.173 414.581,255.339 418.5,251.5 Z"/></g>
<g><path style="opacity:1" fill="#80c582" d="M 342.5,263.5 C 331.012,264.495 319.345,264.828 307.5,264.5C 307.824,271.354 307.491,278.021 306.5,284.5C 306.5,277.5 306.5,270.5 306.5,263.5C 318.5,263.5 330.5,263.5 342.5,263.5 Z"/></g>
<g><path style="opacity:1" fill="#94cd95" d="M 265.5,263.5 C 274.833,263.5 284.167,263.5 293.5,263.5C 293.5,270.5 293.5,277.5 293.5,284.5C 292.509,278.021 292.176,271.354 292.5,264.5C 283.318,264.827 274.318,264.493 265.5,263.5 Z"/></g>
<g><path style="opacity:1" fill="#2497f2" d="M 212.5,331.5 C 266.5,331.5 320.5,331.5 374.5,331.5C 374.5,385.5 374.5,439.5 374.5,493.5C 336.165,493.667 297.832,493.5 259.5,493C 234.483,485.982 218.983,469.816 213,444.5C 212.5,406.835 212.333,369.168 212.5,331.5 Z"/></g>
<g><path style="opacity:1" fill="#455a64" d="M 374.5,331.5 C 428.5,331.5 482.5,331.5 536.5,331.5C 536.667,369.501 536.5,407.501 536,445.5C 529.412,471.088 513.245,486.921 487.5,493C 449.835,493.5 412.168,493.667 374.5,493.5C 374.5,439.5 374.5,385.5 374.5,331.5 Z"/></g>
<g><path style="opacity:1" fill="#eeefef" d="M 432.5,372.5 C 436.426,372.047 439.592,373.38 442,376.5C 456.157,399.318 469.657,422.485 482.5,446C 480.025,454.498 475.525,455.665 469,449.5C 456.667,428.833 444.333,408.167 432,387.5C 428.542,382.274 428.708,377.274 432.5,372.5 Z"/></g>
<g><path style="opacity:1" fill="#f1f5f7" d="M 269.5,372.5 C 272.794,372.259 275.794,373.092 278.5,375C 285.38,383.924 292.38,392.758 299.5,401.5C 307.512,392.819 315.179,383.819 322.5,374.5C 331.856,371.358 335.022,374.358 332,383.5C 324.116,393.049 316.616,402.882 309.5,413C 317,422.5 324.5,432 332,441.5C 334.951,449.779 332.118,453.279 323.5,452C 315.777,442.708 307.944,433.541 300,424.5C 292.19,433.646 284.357,442.813 276.5,452C 273.662,454.12 270.996,453.953 268.5,451.5C 266.703,448.721 266.203,445.721 267,442.5C 275.544,432.958 283.71,423.125 291.5,413C 283.667,403.167 275.833,393.333 268,383.5C 265.771,379.429 266.271,375.762 269.5,372.5 Z"/></g>
</svg>
