<?xml version="1.0" encoding="UTF-8"?>
<!DOCTYPE svg PUBLIC "-//W3C//DTD SVG 1.1//EN" "http://www.w3.org/Graphics/SVG/1.1/DTD/svg11.dtd">
<svg xmlns="http://www.w3.org/2000/svg" version="1.1" width="902px" height="881px" style="shape-rendering:geometricPrecision; text-rendering:geometricPrecision; image-rendering:optimizeQuality; fill-rule:evenodd; clip-rule:evenodd" xmlns:xlink="http://www.w3.org/1999/xlink">
<g><path style="opacity:1" fill="#fefefe" d="M -0.5,-0.5 C 300.167,-0.5 600.833,-0.5 901.5,-0.5C 901.5,293.167 901.5,586.833 901.5,880.5C 600.833,880.5 300.167,880.5 -0.5,880.5C -0.5,586.833 -0.5,293.167 -0.5,-0.5 Z"/></g>
<g><path style="opacity:1" fill="#4db051" d="M 442.5,124.5 C 442.5,230.833 442.5,337.167 442.5,443.5C 336.167,443.5 229.833,443.5 123.5,443.5C 123.333,369.499 123.5,295.499 124,221.5C 136.833,170 169,137.833 220.5,125C 294.499,124.5 368.499,124.333 442.5,124.5 Z"/></g>
<g><path style="opacity:1" fill="#fec108" d="M 442.5,124.5 C 516.167,124.333 589.834,124.5 663.5,125C 716.554,137.054 749.388,169.554 762,222.5C 762.5,296.166 762.667,369.833 762.5,443.5C 655.833,443.5 549.167,443.5 442.5,443.5C 442.5,337.167 442.5,230.833 442.5,124.5 Z"/></g>
<g><path style="opacity:1" fill="#f6f7f5" d="M 380.5,309.5 C 356.831,309.333 333.164,309.5 309.5,310C 308.506,333.092 308.173,356.258 308.5,379.5C 306.493,387.999 301.16,391.499 292.5,390C 289.424,389.089 287.091,387.256 285.5,384.5C 283.038,359.904 282.038,335.238 282.5,310.5C 258.482,310.777 234.482,310.277 210.5,309C 201.167,301 201.167,293 210.5,285C 234.483,283.739 258.483,283.239 282.5,283.5C 282.134,259.476 282.634,235.476 284,211.5C 291.62,202.543 299.62,202.21 308,210.5C 309.381,234.808 309.881,259.142 309.5,283.5C 334.203,283.266 358.87,284.099 383.5,286C 389.077,291.854 389.91,298.354 386,305.5C 384.549,307.464 382.716,308.797 380.5,309.5 Z"/></g>
<g><path style="opacity:1" fill="#faf8f8" d="M 532.5,284.5 C 579.501,284.333 626.501,284.5 673.5,285C 682.671,289.528 684.838,296.361 680,305.5C 678.065,307.102 675.899,308.269 673.5,309C 625.497,309.833 577.497,309.667 529.5,308.5C 520.732,299.126 521.732,291.126 532.5,284.5 Z"/></g>
<g><path style="opacity:1" fill="#91cc93" d="M 380.5,309.5 C 357.358,311.249 334.025,311.916 310.5,311.5C 310.75,334.353 310.084,357.02 308.5,379.5C 308.173,356.258 308.506,333.092 309.5,310C 333.164,309.5 356.831,309.333 380.5,309.5 Z"/></g>
<g><path style="opacity:1" fill="#2397f3" d="M 123.5,443.5 C 229.833,443.5 336.167,443.5 442.5,443.5C 442.5,443.833 442.5,444.167 442.5,444.5C 442.5,550.833 442.5,657.167 442.5,763.5C 368.833,763.667 295.166,763.5 221.5,763C 168.554,750.388 136.054,717.554 124,664.5C 123.5,590.834 123.333,517.167 123.5,443.5 Z"/></g>
<g><path style="opacity:1" fill="#455a64" d="M 442.5,444.5 C 549.167,444.5 655.833,444.5 762.5,444.5C 762.5,516.833 762.5,589.167 762.5,661.5C 751.278,716.556 718.278,750.389 663.5,763C 589.93,763.168 516.43,763.668 443,764.5C 442.601,764.272 442.435,763.938 442.5,763.5C 442.5,657.167 442.5,550.833 442.5,444.5 Z"/></g>
<g><path style="opacity:1" fill="#a7aea8" d="M 442.5,444.5 C 442.5,444.167 442.5,443.833 442.5,443.5C 549.167,443.5 655.833,443.5 762.5,443.5C 763.833,516.167 763.833,588.833 762.5,661.5C 762.5,589.167 762.5,516.833 762.5,444.5C 655.833,444.5 549.167,444.5 442.5,444.5 Z"/></g>
<g><path style="opacity:1" fill="#f5f7f8" d="M 237.5,524.5 C 243.026,523.711 248.026,524.878 252.5,528C 266.62,546.455 281.12,564.622 296,582.5C 311.381,563.575 326.881,544.741 342.5,526C 359.583,522.416 365.417,528.916 360,545.5C 344.259,564.739 329.093,584.405 314.5,604.5C 329.809,624.31 345.309,643.977 361,663.5C 365.179,675.148 361.179,681.815 349,683.5C 347.033,683.458 345.199,682.958 343.5,682C 327.291,663.46 311.457,644.626 296,625.5C 281.735,644.268 266.902,662.601 251.5,680.5C 245.108,684.698 238.942,684.365 233,679.5C 230.265,673.961 229.932,668.294 232,662.5C 247.714,642.908 263.547,623.408 279.5,604C 263.667,584.167 247.833,564.333 232,544.5C 228.572,536.169 230.406,529.502 237.5,524.5 Z"/></g>
<g><path style="opacity:1" fill="#f4f4f4" d="M 558.5,523.5 C 564.561,523.242 569.728,525.242 574,529.5C 600.333,573.167 626.667,616.833 653,660.5C 656.681,667.693 656.181,674.527 651.5,681C 643.658,685.237 636.825,684.07 631,677.5C 604.36,632.898 577.693,588.232 551,543.5C 550.333,539.5 550.333,535.5 551,531.5C 553.705,528.964 556.205,526.297 558.5,523.5 Z"/></g>
</svg>
